# xmcd
#
# Track frame offsets: 
#        150
#        35936
#        60651
#        79518
#        101325
#
# Disc length: 1809 seconds
#
# Revision: 0
# Processed by: cddbd v1.5.2PL0 Copyright (c) Steve Scherf et al.
# Submitted via: ExactAudioCopy v0.95a4
#
DISCID=37070f05
DTITLE=Pee Wee Hayes - Sampler
DYEAR=2018
DGENRE=Blues
TTITLE0=Welfare Blues
TTITLE1=Ain't No Love
TTITLE2=Get Off My Back
TTITLE3=Crossroads Blues
TTITLE4=Ain't That A Shame
EXTD=
EXTT0=
EXTT1=
EXTT2=
EXTT3=
EXTT4=
PLAYORDER=
